Coordinates
version=1
nRows=10
nColumns=40
inDegrees=yes

Units are S.I. units (second, meters, Newtons, ...)
Angles are in degrees.

endheader
time	pelvis_tilt	pelvis_list	pelvis_rotation	pelvis_tx	pelvis_ty	pelvis_tz	hip_flexion_r	hip_adduction_r	hip_rotation_r	knee_angle_r	knee_angle_r_beta	ankle_angle_r	subtalar_angle_r	mtp_angle_r	hip_flexion_l	hip_adduction_l	hip_rotation_l	knee_angle_l	knee_angle_l_beta	ankle_angle_l	subtalar_angle_l	mtp_angle_l	lumbar_extension	lumbar_bending	lumbar_rotation	arm_flex_r	arm_add_r	arm_rot_r	elbow_flex_r	pro_sup_r	wrist_flex_r	wrist_dev_r	arm_flex_l	arm_add_l	arm_rot_l	elbow_flex_l	pro_sup_l	wrist_flex_l	wrist_dev_l
      0.43000000	     -2.11882147	     -2.43122390	     10.65307894	     -0.47011807	      0.88871348	     -1.46754225	     16.95906460	      3.04512662	    -17.35787630	    -26.55063688	     -0.46339603	      8.49120132	    -10.66105708	      7.22799297	     14.52123260	      8.34699685	      1.13440616	    -67.04968776	     -1.17023781	     -9.49164717	     18.52847986	      0.29915605	     -2.91512345	      2.04064225	     -7.04036181	     -8.50705332	     -9.37998459	    -11.66480433	     24.50115036	     89.95437384	      0.00000000	      0.00000000	     -5.37542617	     11.90987348	     26.55459020	     49.62643025	     89.95437384	      0.00000000	      0.00000000
      0.44000000	     -1.97078865	     -2.38769627	     10.11104548	     -0.45923708	      0.88959032	     -1.46664164	     15.83350646	      3.38418891	    -17.01393172	    -26.17067856	     -0.45676451	      8.93703950	    -10.35416126	      7.07134679	     15.75966090	      8.28470205	      1.50470856	    -68.10098268	     -1.18858637	     -7.18679697	     18.73533707	      1.01273613	     -3.11613009	      1.98966976	     -6.37891867	     -8.14226054	     -9.53073489	    -11.50393977	     25.39322751	     89.95437384	      0.00000000	      0.00000000	     -5.97294179	     11.60760627	     26.31419230	     48.97594102	     89.95437384	      0.00000000	      0.00000000
      0.45000000	     -1.92063197	     -2.22378034	      9.53639752	     -0.44876379	      0.89039766	     -1.46588650	     14.90340819	      3.60509525	    -16.32871409	    -25.86740836	     -0.45147144	      9.06881290	    -10.76028399	      7.30619251	     17.19302051	      7.96780355	      2.02318371	    -69.22019605	     -1.20812033	     -2.90078566	     18.51051493	     20.57037993	     -3.28275545	      1.80639625	     -5.72132740	     -7.72732008	     -9.68851737	    -11.31994518	     26.23925713	     89.95437384	      0.00000000	      0.00000000	     -6.54132015	     11.31089726	     26.05891865	     48.28838740	     89.95437384	      0.00000000	      0.00000000
      0.46000000	     -1.88758489	     -1.92744186	      9.02444047	     -0.43810643	      0.89109418	     -1.46524683	     13.94563577	      3.54831290	    -16.00146419	    -25.59295383	     -0.44668131	      9.44095060	    -10.48091771	      7.12092927	     18.42567032	      7.60812787	      2.51568904	    -69.68004938	     -1.21614628	     -1.28726594	     18.65635437	     20.12616931	     -3.40423985	      1.44127334	     -5.21712380	     -7.20164832	     -9.76418952	    -11.30045764	     26.96161575	     89.95437384	      0.00000000	      0.00000000	     -7.19115663	     11.02273891	     25.96036526	     47.66037671	     89.95437384	      0.00000000	      0.00000000
      0.47000000	     -1.86437277	     -1.77872693	      8.47448430	     -0.42761757	      0.89162961	     -1.46462646	     13.01083992	      3.73453781	    -15.16760923	    -25.29769038	     -0.44152799	     10.11447887	    -10.20501245	      6.88258201	     19.61072212	      7.34958799	      2.91059519	    -69.89446874	     -1.21988861	      1.18073826	     18.79418948	     19.75289132	     -3.50205046	      1.26584983	     -4.64519002	     -6.82182880	     -9.90270238	    -11.29027572	     28.00981741	     89.95437384	      0.00000000	      0.00000000	     -7.78858022	     10.69033703	     25.77103544	     46.94113915	     89.95437384	      0.00000000	      0.00000000
      0.48000000	     -1.74192387	     -1.65071372	      7.75923397	     -0.41706500	      0.89219394	     -1.46362241	     11.95110945	      3.99344041	    -14.21211165	    -24.95493688	     -0.43554581	     10.42462811	    -10.29737768	      6.72913356	     20.65318772	      7.34114123	      3.67492541	    -69.83236051	     -1.21880462	      2.62969086	     18.87736074	     20.38969523	     -3.70258175	      1.11136907	     -3.88946192	     -6.49976211	    -10.01840323	    -11.33057460	     29.19188880	     89.95437384	      0.00000000	      0.00000000	     -8.35620410	     10.42027152	     25.44873914	     46.18768219	     89.95437384	      0.00000000	      0.00000000
      0.49000000	     -1.69254772	     -1.51026795	      7.22570155	     -0.40692142	      0.89260150	     -1.46294409	     10.99759632	      4.07927935	    -13.78177766	    -24.64685061	     -0.43016869	     10.80192023	    -10.13663678	      6.55743585	     21.79831942	      7.18659152	      4.18745350	    -69.51468307	     -1.21326010	      3.96735396	     18.95621788	     20.69260245	     -3.85980750	      0.92629945	     -3.35082426	     -6.12095326	    -10.13341607	    -11.16713319	     30.38067356	     89.95437384	      0.00000000	      0.00000000	     -8.86770694	     10.09719045	     25.29105976	     45.42872293	     89.95437384	      0.00000000	      0.00000000
      0.50000000	     -1.78671038	     -1.35544043	      6.86800243	     -0.39676348	      0.89266538	     -1.46252708	     10.22609141	      4.03256610	    -13.75683749	    -24.46750261	     -0.42703848	     11.05301372	     -9.98706218	      6.43237635	     23.13911080	      6.98414589	      4.60978585	    -68.98928720	     -1.20409021	      4.53361137	     19.03841944	     20.46976099	     -3.82638185	      0.68981113	     -3.12902644	     -5.61060652	    -10.17218435	    -11.15522146	     31.28709533	     89.95437384	      0.00000000	      0.00000000	     -9.54194554	      9.79832729	     25.16371293	     44.75941166	     89.95437384	      0.00000000	      0.00000000
      0.51000000	     -1.88558640	     -1.20930316	      6.46500040	     -0.38656367	      0.89264765	     -1.46211146	      9.39806580	      4.00551834	    -13.57092155	    -24.12882447	     -0.42112743	     11.44492260	     -9.75162804	      6.28515556	     24.37935920	      6.82337955	      5.10287973	    -68.21190620	     -1.19052235	      5.48464717	     19.14210768	     20.28966521	     -3.77425233	      0.47226140	     -2.78288251	     -5.25319195	    -10.23207680	    -11.14910118	     32.47293850	     89.95437384	      0.00000000	      0.00000000	    -10.08797329	      9.47589711	     25.03671876	     43.94057763	     89.95437384	      0.00000000	      0.00000000
      0.52000000	     -1.37727029	     -1.03951675	      5.68589659	     -0.37606359	      0.89349168	     -1.46141389	      7.70650193	      4.16812044	    -12.50236733	    -23.43871827	     -0.40908281	     11.90662687	     -9.15662890	      6.02386139	     24.68462749	      6.72759833	      5.76915558	    -67.08544353	     -1.17086187	      7.31868033	     19.10758088	     21.90654324	     -4.46166601	      0.35079785	     -1.76549315	     -5.26133350	    -10.40071582	    -11.30906764	     34.32956849	     89.95437384	      0.00000000	      0.00000000	    -10.25081968	      9.19705409	     24.54986320	     42.85037587	     89.95437384	      0.00000000	      0.00000000
